<mxfile host="app.diagrams.net" modified="2023-01-11T16:16:44.960Z" agent="5.0 (Windows NT 10.0; Win64; x64) AppleWebKit/537.36 (KHTML, like Gecko) Chrome/108.0.0.0 Safari/537.36 OPR/94.0.0.0" etag="fmMS2C4hON4-CobCEZKU" version="20.8.3" type="github">
  <diagram name="Page-1" id="e7e014a7-5840-1c2e-5031-d8a46d1fe8dd">
    <mxGraphModel dx="1677" dy="610" grid="1" gridSize="10" guides="1" tooltips="1" connect="1" arrows="1" fold="1" page="1" pageScale="1" pageWidth="1169" pageHeight="826" background="none" math="0" shadow="0">
      <root>
        <mxCell id="0" />
        <mxCell id="1" parent="0" />
        <mxCell id="SPDB-RYZYYu29DdNVvm_-6" value="Calon Employee" style="swimlane;whiteSpace=wrap;startSize=23;" parent="1" vertex="1">
          <mxGeometry x="-980" y="30" width="370" height="890" as="geometry" />
        </mxCell>
        <mxCell id="SPDB-RYZYYu29DdNVvm_-7" value="" style="ellipse;shape=startState;fillColor=#000000;strokeColor=#ff0000;" parent="SPDB-RYZYYu29DdNVvm_-6" vertex="1">
          <mxGeometry x="100" y="40" width="30" height="30" as="geometry" />
        </mxCell>
        <mxCell id="SPDB-RYZYYu29DdNVvm_-8" value="" style="edgeStyle=elbowEdgeStyle;elbow=horizontal;verticalAlign=bottom;endArrow=open;endSize=8;strokeColor=#FF0000;endFill=1;rounded=0" parent="SPDB-RYZYYu29DdNVvm_-6" source="SPDB-RYZYYu29DdNVvm_-7" edge="1">
          <mxGeometry x="100" y="40" as="geometry">
            <mxPoint x="115.16666666666674" y="110" as="targetPoint" />
          </mxGeometry>
        </mxCell>
        <mxCell id="SPDB-RYZYYu29DdNVvm_-9" value="Menekan menu lowongan kerja" style="rounded=1;whiteSpace=wrap;html=1;" parent="SPDB-RYZYYu29DdNVvm_-6" vertex="1">
          <mxGeometry x="55" y="112" width="120" height="60" as="geometry" />
        </mxCell>
        <mxCell id="SPDB-RYZYYu29DdNVvm_-10" value="memilih lowongan kerja yang tersedia" style="whiteSpace=wrap;html=1;fillColor=rgb(255, 255, 255);strokeColor=rgb(0, 0, 0);fontColor=rgb(0, 0, 0);rounded=1;" parent="SPDB-RYZYYu29DdNVvm_-6" vertex="1">
          <mxGeometry x="60.5" y="192" width="120" height="60" as="geometry" />
        </mxCell>
        <mxCell id="SPDB-RYZYYu29DdNVvm_-12" value="menekan tombol daftar" style="whiteSpace=wrap;html=1;fillColor=rgb(255, 255, 255);strokeColor=rgb(0, 0, 0);fontColor=rgb(0, 0, 0);rounded=1;" parent="SPDB-RYZYYu29DdNVvm_-6" vertex="1">
          <mxGeometry x="80" y="320" width="120" height="60" as="geometry" />
        </mxCell>
        <mxCell id="3gSgdYO0fGuUeUfBtWUW-8" value="" style="edgeStyle=orthogonalEdgeStyle;rounded=0;orthogonalLoop=1;jettySize=auto;html=1;" parent="SPDB-RYZYYu29DdNVvm_-6" source="3gSgdYO0fGuUeUfBtWUW-5" target="3gSgdYO0fGuUeUfBtWUW-7" edge="1">
          <mxGeometry relative="1" as="geometry" />
        </mxCell>
        <mxCell id="3gSgdYO0fGuUeUfBtWUW-5" value="mengisi biodata diri" style="whiteSpace=wrap;html=1;fillColor=rgb(255, 255, 255);strokeColor=rgb(0, 0, 0);fontColor=rgb(0, 0, 0);rounded=1;" parent="SPDB-RYZYYu29DdNVvm_-6" vertex="1">
          <mxGeometry x="80" y="430" width="120" height="60" as="geometry" />
        </mxCell>
        <mxCell id="3gSgdYO0fGuUeUfBtWUW-7" value="mengunggah berkas yang dimninta" style="whiteSpace=wrap;html=1;fillColor=rgb(255, 255, 255);strokeColor=rgb(0, 0, 0);fontColor=rgb(0, 0, 0);rounded=1;" parent="SPDB-RYZYYu29DdNVvm_-6" vertex="1">
          <mxGeometry x="80" y="520" width="120" height="60" as="geometry" />
        </mxCell>
        <mxCell id="3gSgdYO0fGuUeUfBtWUW-12" value="Menekan tombol submit" style="whiteSpace=wrap;html=1;fillColor=rgb(255, 255, 255);strokeColor=rgb(0, 0, 0);fontColor=rgb(0, 0, 0);rounded=1;" parent="SPDB-RYZYYu29DdNVvm_-6" vertex="1">
          <mxGeometry x="80" y="610" width="120" height="60" as="geometry" />
        </mxCell>
        <mxCell id="SPDB-RYZYYu29DdNVvm_-20" value="Sistem" style="swimlane;whiteSpace=wrap" parent="1" vertex="1">
          <mxGeometry x="-610" y="30" width="510" height="890" as="geometry" />
        </mxCell>
        <mxCell id="SPDB-RYZYYu29DdNVvm_-21" value="menampilkan daftar lowongan kerja" style="whiteSpace=wrap;html=1;fillColor=rgb(255, 255, 255);strokeColor=rgb(0, 0, 0);fontColor=rgb(0, 0, 0);rounded=1;" parent="SPDB-RYZYYu29DdNVvm_-20" vertex="1">
          <mxGeometry x="140.5" y="112" width="120" height="60" as="geometry" />
        </mxCell>
        <mxCell id="SPDB-RYZYYu29DdNVvm_-22" value="menampilkan detail lowongan kerja" style="whiteSpace=wrap;html=1;fillColor=rgb(255, 255, 255);strokeColor=rgb(0, 0, 0);fontColor=rgb(0, 0, 0);rounded=1;" parent="SPDB-RYZYYu29DdNVvm_-20" vertex="1">
          <mxGeometry x="150" y="252" width="120" height="60" as="geometry" />
        </mxCell>
        <mxCell id="3gSgdYO0fGuUeUfBtWUW-3" value="memnpilka form pemdaftaran" style="whiteSpace=wrap;html=1;fillColor=rgb(255, 255, 255);strokeColor=rgb(0, 0, 0);fontColor=rgb(0, 0, 0);rounded=1;" parent="SPDB-RYZYYu29DdNVvm_-20" vertex="1">
          <mxGeometry x="155" y="380" width="120" height="60" as="geometry" />
        </mxCell>
        <mxCell id="3gSgdYO0fGuUeUfBtWUW-10" value="menpilkan pesan berkas berhasil diunggah" style="whiteSpace=wrap;html=1;fillColor=rgb(255, 255, 255);strokeColor=rgb(0, 0, 0);fontColor=rgb(0, 0, 0);rounded=1;" parent="SPDB-RYZYYu29DdNVvm_-20" vertex="1">
          <mxGeometry x="150" y="610" width="120" height="60" as="geometry" />
        </mxCell>
        <mxCell id="3gSgdYO0fGuUeUfBtWUW-18" value="" style="edgeStyle=orthogonalEdgeStyle;rounded=0;orthogonalLoop=1;jettySize=auto;html=1;" parent="SPDB-RYZYYu29DdNVvm_-20" source="3gSgdYO0fGuUeUfBtWUW-16" target="3gSgdYO0fGuUeUfBtWUW-17" edge="1">
          <mxGeometry relative="1" as="geometry" />
        </mxCell>
        <mxCell id="3gSgdYO0fGuUeUfBtWUW-16" value="melakukan pemeriksaan ukuran berkas" style="rounded=1;whiteSpace=wrap;html=1;" parent="SPDB-RYZYYu29DdNVvm_-20" vertex="1">
          <mxGeometry x="150" y="520" width="120" height="60" as="geometry" />
        </mxCell>
        <mxCell id="3gSgdYO0fGuUeUfBtWUW-19" style="edgeStyle=orthogonalEdgeStyle;rounded=0;orthogonalLoop=1;jettySize=auto;html=1;entryX=1;entryY=0.5;entryDx=0;entryDy=0;" parent="SPDB-RYZYYu29DdNVvm_-20" source="3gSgdYO0fGuUeUfBtWUW-17" target="3gSgdYO0fGuUeUfBtWUW-10" edge="1">
          <mxGeometry relative="1" as="geometry">
            <Array as="points">
              <mxPoint x="400" y="640" />
            </Array>
          </mxGeometry>
        </mxCell>
        <mxCell id="3gSgdYO0fGuUeUfBtWUW-24" value="" style="edgeStyle=orthogonalEdgeStyle;rounded=0;orthogonalLoop=1;jettySize=auto;html=1;" parent="SPDB-RYZYYu29DdNVvm_-20" source="3gSgdYO0fGuUeUfBtWUW-17" target="3gSgdYO0fGuUeUfBtWUW-23" edge="1">
          <mxGeometry relative="1" as="geometry" />
        </mxCell>
        <mxCell id="3gSgdYO0fGuUeUfBtWUW-17" value="" style="rhombus;whiteSpace=wrap;html=1;rounded=1;" parent="SPDB-RYZYYu29DdNVvm_-20" vertex="1">
          <mxGeometry x="360" y="510" width="80" height="80" as="geometry" />
        </mxCell>
        <mxCell id="3gSgdYO0fGuUeUfBtWUW-22" value="no" style="text;html=1;align=center;verticalAlign=middle;resizable=0;points=[];autosize=1;strokeColor=none;fillColor=none;" parent="SPDB-RYZYYu29DdNVvm_-20" vertex="1">
          <mxGeometry x="400" y="490" width="40" height="30" as="geometry" />
        </mxCell>
        <mxCell id="3gSgdYO0fGuUeUfBtWUW-25" value="" style="edgeStyle=orthogonalEdgeStyle;rounded=0;orthogonalLoop=1;jettySize=auto;html=1;" parent="SPDB-RYZYYu29DdNVvm_-20" source="3gSgdYO0fGuUeUfBtWUW-23" target="3gSgdYO0fGuUeUfBtWUW-3" edge="1">
          <mxGeometry relative="1" as="geometry" />
        </mxCell>
        <mxCell id="3gSgdYO0fGuUeUfBtWUW-23" value="menampilkan pesan berkas tidak berhasil dunggah" style="whiteSpace=wrap;html=1;rounded=1;" parent="SPDB-RYZYYu29DdNVvm_-20" vertex="1">
          <mxGeometry x="340" y="380" width="120" height="60" as="geometry" />
        </mxCell>
        <mxCell id="3gSgdYO0fGuUeUfBtWUW-30" value="" style="edgeStyle=orthogonalEdgeStyle;rounded=0;orthogonalLoop=1;jettySize=auto;html=1;" parent="SPDB-RYZYYu29DdNVvm_-20" source="3gSgdYO0fGuUeUfBtWUW-26" target="3gSgdYO0fGuUeUfBtWUW-28" edge="1">
          <mxGeometry relative="1" as="geometry" />
        </mxCell>
        <mxCell id="3gSgdYO0fGuUeUfBtWUW-26" value="menmpilkan pesan berhasil mengisi form lamaran&amp;nbsp;" style="whiteSpace=wrap;html=1;fillColor=rgb(255, 255, 255);strokeColor=rgb(0, 0, 0);fontColor=rgb(0, 0, 0);rounded=1;" parent="SPDB-RYZYYu29DdNVvm_-20" vertex="1">
          <mxGeometry x="140.5" y="720" width="120" height="60" as="geometry" />
        </mxCell>
        <mxCell id="3gSgdYO0fGuUeUfBtWUW-28" value="" style="ellipse;html=1;shape=endState;fillColor=#000000;strokeColor=#ff0000;" parent="SPDB-RYZYYu29DdNVvm_-20" vertex="1">
          <mxGeometry x="330" y="735" width="30" height="30" as="geometry" />
        </mxCell>
        <mxCell id="SPDB-RYZYYu29DdNVvm_-28" value="" style="edgeStyle=orthogonalEdgeStyle;rounded=0;orthogonalLoop=1;jettySize=auto;html=1;" parent="1" source="SPDB-RYZYYu29DdNVvm_-9" target="SPDB-RYZYYu29DdNVvm_-21" edge="1">
          <mxGeometry relative="1" as="geometry" />
        </mxCell>
        <mxCell id="SPDB-RYZYYu29DdNVvm_-29" value="" style="edgeStyle=orthogonalEdgeStyle;rounded=0;orthogonalLoop=1;jettySize=auto;html=1;" parent="1" source="SPDB-RYZYYu29DdNVvm_-21" target="SPDB-RYZYYu29DdNVvm_-10" edge="1">
          <mxGeometry relative="1" as="geometry">
            <Array as="points">
              <mxPoint x="-400" y="252" />
            </Array>
          </mxGeometry>
        </mxCell>
        <mxCell id="SPDB-RYZYYu29DdNVvm_-30" value="" style="edgeStyle=orthogonalEdgeStyle;rounded=0;orthogonalLoop=1;jettySize=auto;html=1;" parent="1" source="SPDB-RYZYYu29DdNVvm_-10" target="SPDB-RYZYYu29DdNVvm_-22" edge="1">
          <mxGeometry relative="1" as="geometry">
            <Array as="points">
              <mxPoint x="-840" y="320" />
            </Array>
          </mxGeometry>
        </mxCell>
        <mxCell id="SPDB-RYZYYu29DdNVvm_-31" value="" style="edgeStyle=orthogonalEdgeStyle;rounded=0;orthogonalLoop=1;jettySize=auto;html=1;" parent="1" source="SPDB-RYZYYu29DdNVvm_-22" target="SPDB-RYZYYu29DdNVvm_-12" edge="1">
          <mxGeometry relative="1" as="geometry">
            <Array as="points">
              <mxPoint x="-400" y="380" />
            </Array>
          </mxGeometry>
        </mxCell>
        <mxCell id="3gSgdYO0fGuUeUfBtWUW-4" value="" style="edgeStyle=orthogonalEdgeStyle;rounded=0;orthogonalLoop=1;jettySize=auto;html=1;" parent="1" source="SPDB-RYZYYu29DdNVvm_-12" target="3gSgdYO0fGuUeUfBtWUW-3" edge="1">
          <mxGeometry relative="1" as="geometry">
            <Array as="points">
              <mxPoint x="-850" y="440" />
            </Array>
          </mxGeometry>
        </mxCell>
        <mxCell id="3gSgdYO0fGuUeUfBtWUW-6" value="" style="edgeStyle=orthogonalEdgeStyle;rounded=0;orthogonalLoop=1;jettySize=auto;html=1;" parent="1" source="3gSgdYO0fGuUeUfBtWUW-3" target="3gSgdYO0fGuUeUfBtWUW-5" edge="1">
          <mxGeometry relative="1" as="geometry">
            <Array as="points">
              <mxPoint x="-400" y="500" />
            </Array>
          </mxGeometry>
        </mxCell>
        <mxCell id="3gSgdYO0fGuUeUfBtWUW-13" value="" style="edgeStyle=orthogonalEdgeStyle;rounded=0;orthogonalLoop=1;jettySize=auto;html=1;" parent="1" source="3gSgdYO0fGuUeUfBtWUW-10" target="3gSgdYO0fGuUeUfBtWUW-12" edge="1">
          <mxGeometry relative="1" as="geometry">
            <Array as="points">
              <mxPoint x="-400" y="670" />
            </Array>
          </mxGeometry>
        </mxCell>
        <mxCell id="3gSgdYO0fGuUeUfBtWUW-15" value="" style="edgeStyle=orthogonalEdgeStyle;rounded=0;orthogonalLoop=1;jettySize=auto;html=1;entryX=0;entryY=0.5;entryDx=0;entryDy=0;" parent="1" source="3gSgdYO0fGuUeUfBtWUW-7" target="3gSgdYO0fGuUeUfBtWUW-16" edge="1">
          <mxGeometry relative="1" as="geometry">
            <mxPoint x="-440" y="580" as="targetPoint" />
          </mxGeometry>
        </mxCell>
        <mxCell id="3gSgdYO0fGuUeUfBtWUW-20" value="yes" style="text;html=1;align=center;verticalAlign=middle;resizable=0;points=[];autosize=1;strokeColor=none;fillColor=none;" parent="1" vertex="1">
          <mxGeometry x="-210" y="615" width="40" height="30" as="geometry" />
        </mxCell>
        <mxCell id="3gSgdYO0fGuUeUfBtWUW-27" value="" style="edgeStyle=orthogonalEdgeStyle;rounded=0;orthogonalLoop=1;jettySize=auto;html=1;" parent="1" source="3gSgdYO0fGuUeUfBtWUW-12" target="3gSgdYO0fGuUeUfBtWUW-26" edge="1">
          <mxGeometry relative="1" as="geometry">
            <Array as="points">
              <mxPoint x="-840" y="780" />
            </Array>
          </mxGeometry>
        </mxCell>
      </root>
    </mxGraphModel>
  </diagram>
</mxfile>
